<svg width="16" height="16" viewBox="0 0 16 16" fill="none" xmlns="http://www.w3.org/2000/svg">
<path d="M13 8H11C10.7349 8.00026 10.4807 8.10571 10.2932 8.29319C10.1057 8.48066 10.0003 8.73486 10 9V15H11V12.5H13V15H14V9C13.9997 8.73486 13.8943 8.48066 13.7068 8.29319C13.5193 8.10571 13.2651 8.00026 13 8ZM11 11.5V9H13V11.5H11Z" fill="white"/>
<path d="M8 13.5C7.08442 13.5003 6.18328 13.2718 5.37851 12.8352C4.57374 12.3986 3.89088 11.7677 3.392 11H6V10H2V14H3V12.1575C3.61091 12.8904 4.37542 13.4801 5.23944 13.8849C6.10345 14.2897 7.04586 14.4997 8 14.5V13.5Z" fill="white"/>
<path d="M10 5.00002H12.6075C11.961 4.00627 11.0107 3.24809 9.89812 2.83852C8.78559 2.42894 7.57048 2.38991 6.43395 2.72724C5.29743 3.06457 4.30037 3.76019 3.59144 4.7104C2.8825 5.6606 2.49966 6.81449 2.5 8.00002H1.5C1.50056 6.66364 1.91286 5.35989 2.68079 4.26619C3.44871 3.17248 4.53497 2.34194 5.79174 1.8876C7.04851 1.43325 8.41475 1.37715 9.70453 1.72695C10.9943 2.07675 12.145 2.81544 13 3.84252V2.00002H14V6.00002H10V5.00002Z" fill="white"/>
</svg>
