<svg width="24" height="24" viewBox="0 0 24 24" fill="none" xmlns="http://www.w3.org/2000/svg">
<path fill-rule="evenodd" clip-rule="evenodd" d="M19 19.136C17.196 20.906 14.727 22 12 22C9.273 22 6.804 20.906 5 19.136V17.499C5 16.203 5.74 15.499 7 15.499H17C18.26 15.499 19 16.203 19 17.499V19.136ZM12 4.584C14.761 4.584 17 6.822 17 9.584C17 12.345 14.761 14.584 12 14.584C9.239 14.584 7 12.345 7 9.584C7 6.822 9.239 4.584 12 4.584ZM12 0C5.373 0 0 5.373 0 12C0 18.628 5.373 24 12 24C18.627 24 24 18.628 24 12C24 5.373 18.627 0 12 0Z" fill="#3D70B2"/>
</svg>
