<svg width="21" height="21" viewBox="0 0 21 21" fill="none" xmlns="http://www.w3.org/2000/svg">
<path d="M18.5414 10.4421H10.1602V2.06087C10.1602 1.95774 10.0758 1.87337 9.97266 1.87337H9.36328C8.13348 1.87211 6.91553 2.1137 5.77931 2.58428C4.6431 3.05485 3.61098 3.74515 2.74219 4.61556C1.8868 5.4683 1.2054 6.47925 0.735937 7.59212C0.248438 8.74759 0 9.97337 0 11.239C0 12.5046 0.248438 13.7281 0.735937 14.8835C1.20703 15.9968 1.88203 16.9999 2.74219 17.8601C3.60234 18.7202 4.60312 19.3952 5.71875 19.8663C6.8722 20.3557 8.11267 20.6068 9.36562 20.6046C10.5954 20.6059 11.8134 20.3643 12.9496 19.8937C14.0858 19.4231 15.1179 18.7328 15.9867 17.8624C16.8469 17.0023 17.5219 16.0015 17.993 14.8859C18.4823 13.7324 18.7334 12.492 18.7312 11.239V10.6296C18.7289 10.5265 18.6445 10.4421 18.5414 10.4421ZM20.6016 9.14134L20.5406 8.4804C20.3414 6.32415 19.3852 4.28977 17.843 2.75462C16.3022 1.21516 14.2719 0.262584 12.1031 0.0616493L11.4398 0.000711861C11.3297 -0.00866314 11.2359 0.0757119 11.2359 0.185868V9.17884C11.2359 9.28196 11.3203 9.36634 11.4234 9.36634L20.4141 9.3429C20.5242 9.34056 20.6109 9.24915 20.6016 9.14134Z" fill="#3D70B2"/>
</svg>
