<svg width="22" height="24" viewBox="0 0 22 24" fill="none" xmlns="http://www.w3.org/2000/svg">
<path fill-rule="evenodd" clip-rule="evenodd" d="M11 0C9.96501 0 8.23551 0.3975 6.60801 0.84C4.94301 1.29 3.26451 1.8225 2.27751 2.145C1.86485 2.28128 1.49899 2.5312 1.22198 2.86605C0.944973 3.20091 0.768039 3.60711 0.711508 4.038C-0.182492 10.7535 1.89201 15.7305 4.40901 19.023C5.47638 20.4314 6.74905 21.6717 8.18451 22.7025C8.76351 23.112 9.30051 23.4255 9.75651 23.64C10.1765 23.838 10.628 24 11 24C11.372 24 11.822 23.838 12.2435 23.64C12.7932 23.3728 13.3191 23.0592 13.8155 22.7025C15.251 21.6718 16.5237 20.4315 17.591 19.023C20.108 15.7305 22.1825 10.7535 21.2885 4.038C21.2321 3.6069 21.0552 3.20046 20.7782 2.86535C20.5012 2.53024 20.1353 2.28004 19.7225 2.1435C18.2897 1.67372 16.8458 1.23859 15.392 0.8385C13.7645 0.399 12.035 0 11 0ZM10.25 7.5C10.25 7.30109 10.329 7.11032 10.4697 6.96967C10.6103 6.82902 10.8011 6.75 11 6.75C11.1989 6.75 11.3897 6.82902 11.5303 6.96967C11.671 7.11032 11.75 7.30109 11.75 7.5V9.75H14C14.1989 9.75 14.3897 9.82902 14.5303 9.96967C14.671 10.1103 14.75 10.3011 14.75 10.5C14.75 10.6989 14.671 10.8897 14.5303 11.0303C14.3897 11.171 14.1989 11.25 14 11.25H11.75V13.5C11.75 13.6989 11.671 13.8897 11.5303 14.0303C11.3897 14.171 11.1989 14.25 11 14.25C10.8011 14.25 10.6103 14.171 10.4697 14.0303C10.329 13.8897 10.25 13.6989 10.25 13.5V11.25H8.00001C7.8011 11.25 7.61033 11.171 7.46968 11.0303C7.32903 10.8897 7.25001 10.6989 7.25001 10.5C7.25001 10.3011 7.32903 10.1103 7.46968 9.96967C7.61033 9.82902 7.8011 9.75 8.00001 9.75H10.25V7.5Z" fill="#939BA0"/>
</svg>
