<svg width="22" height="18" viewBox="0 0 22 18" fill="none" xmlns="http://www.w3.org/2000/svg">
<path d="M21.4097 8.64L16.9097 0.390003C16.845 0.271642 16.7495 0.172942 16.6333 0.104305C16.5172 0.0356676 16.3847 -0.000365464 16.2497 2.79464e-06H5.74974C5.61482 -0.000365464 5.4823 0.0356676 5.36615 0.104305C5.24999 0.172942 5.1545 0.271642 5.08974 0.390003L0.589739 8.64C0.523912 8.75402 0.489258 8.88335 0.489258 9.015C0.489258 9.14666 0.523912 9.27599 0.589739 9.39L5.08974 17.64C5.15834 17.7528 5.25549 17.8455 5.37137 17.9087C5.48726 17.9719 5.61778 18.0034 5.74974 18H16.2497C16.3847 18.0004 16.5172 17.9643 16.6333 17.8957C16.7495 17.8271 16.845 17.7284 16.9097 17.61L21.4097 9.36C21.4701 9.24962 21.5018 9.12582 21.5018 9C21.5018 8.87418 21.4701 8.75038 21.4097 8.64ZM16.1972 2.25L19.4897 8.25H12.3647L16.1972 2.25ZM10.9997 7.605L7.11474 1.5H14.8847L10.9997 7.605ZM5.80224 2.25L9.63474 8.25H2.50974L5.80224 2.25ZM2.50974 9.75H9.63474L5.80224 15.75L2.50974 9.75ZM10.9997 10.395L14.8847 16.5H7.11474L10.9997 10.395ZM16.1972 15.75L12.3647 9.75H19.4897L16.1972 15.75Z" fill="#5A6872"/>
</svg>
