<svg width="36" height="38" viewBox="0 0 36 38" fill="none" xmlns="http://www.w3.org/2000/svg">
<path fill-rule="evenodd" clip-rule="evenodd" d="M31.6283 20.7159L31.8133 19.3434C33.28 20.2367 33.7392 20.7559 33.8742 20.9767C33.4825 21.0934 32.6925 20.9876 31.6283 20.7159ZM16.9392 15.6984C16.9392 15.6576 16.9725 15.6234 17.0142 15.6234C17.0267 15.6234 17.0342 15.6309 17.045 15.6359L16.9875 15.7526C16.9608 15.7451 16.9392 15.7301 16.9392 15.6984ZM28.3108 32.8642C28.3058 32.9017 28.3033 32.9384 28.3033 32.9759C28.3033 33.1026 27.9892 33.5892 26.5917 34.1417C25.9683 34.3876 25.2325 34.6092 24.4033 34.7992C22.265 35.2942 19.64 35.5667 17.0133 35.5667C9.99 35.5667 5.72583 33.7676 5.72583 32.9759C5.72583 32.9384 5.72333 32.9017 5.71833 32.8642L2.53333 9.21091C2.7375 9.33008 2.95833 9.44425 3.18833 9.55508C3.24583 9.58342 3.31 9.61008 3.37 9.63758C3.57667 9.73258 3.79167 9.82508 4.015 9.91425C4.105 9.95008 4.19583 9.98508 4.2875 10.0201C4.52167 10.1084 4.76333 10.1926 5.01333 10.2742C5.08 10.2959 5.14417 10.3192 5.2125 10.3409C5.53083 10.4409 5.86 10.5359 6.2 10.6267C6.28583 10.6492 6.375 10.6701 6.46333 10.6926C6.73 10.7609 7.00333 10.8259 7.2825 10.8876C7.39333 10.9126 7.50333 10.9367 7.61583 10.9609C7.92583 11.0259 8.24083 11.0876 8.56083 11.1467C8.625 11.1576 8.68583 11.1709 8.75 11.1817C9.13333 11.2492 9.525 11.3109 9.92167 11.3684C10.0283 11.3842 10.1367 11.3976 10.2442 11.4126C10.5492 11.4542 10.8558 11.4934 11.1667 11.5292C11.2892 11.5434 11.4108 11.5576 11.5333 11.5709C11.9042 11.6109 12.2775 11.6467 12.6542 11.6784C12.6983 11.6826 12.7417 11.6867 12.7858 11.6909C13.2042 11.7251 13.6258 11.7526 14.0492 11.7759C14.1675 11.7826 14.285 11.7884 14.4042 11.7942C14.7242 11.8101 15.0442 11.8234 15.3642 11.8334C15.49 11.8376 15.6142 11.8417 15.74 11.8442C16.165 11.8542 16.59 11.8617 17.0133 11.8617C17.4367 11.8617 17.8608 11.8542 18.2867 11.8442C18.4125 11.8417 18.5367 11.8376 18.6617 11.8334C18.9825 11.8234 19.3033 11.8101 19.6233 11.7942C19.7417 11.7884 19.8592 11.7826 19.9775 11.7759C20.4008 11.7526 20.8233 11.7251 21.2425 11.6909C21.285 11.6867 21.3258 11.6826 21.3675 11.6792C21.7467 11.6476 22.1225 11.6109 22.495 11.5701C22.6175 11.5576 22.7375 11.5434 22.8583 11.5301C23.1717 11.4934 23.4817 11.4542 23.7883 11.4117C23.8933 11.3967 23.9992 11.3842 24.1042 11.3684C24.5025 11.3109 24.8958 11.2492 25.2808 11.1817C25.34 11.1709 25.3975 11.1584 25.4575 11.1484C25.7825 11.0884 26.1017 11.0259 26.4158 10.9601C26.5258 10.9367 26.6342 10.9126 26.7425 10.8884C27.025 10.8259 27.3017 10.7601 27.5717 10.6909C27.6558 10.6692 27.7425 10.6492 27.8267 10.6267C28.1675 10.5359 28.4992 10.4409 28.8183 10.3401C28.8833 10.3192 28.9442 10.2976 29.0083 10.2767C29.2617 10.1934 29.5075 10.1084 29.7442 10.0184C29.8342 9.98508 29.9225 9.95008 30.01 9.91591C30.2367 9.82591 30.455 9.73175 30.6633 9.63508C30.7208 9.60841 30.7825 9.58341 30.8392 9.55591C31.07 9.44508 31.2908 9.33008 31.4958 9.21091L30.0108 20.2417C26.9933 19.2734 22.7567 17.5176 18.7475 15.6109C18.7 14.6917 17.945 13.9567 17.0142 13.9567C16.0542 13.9567 15.2725 14.7376 15.2725 15.6984C15.2725 16.6601 16.0542 17.4409 17.0142 17.4409C17.3908 17.4409 17.7383 17.3184 18.0233 17.1142C21.6175 18.8376 26.2042 20.8717 29.7858 21.9059L28.3108 32.8642ZM17.0133 2.33341C25.6567 2.33341 31.7467 5.01008 31.86 6.49591L31.8383 6.66841C31.8225 6.71925 31.79 6.77258 31.7625 6.82508C31.74 6.86758 31.7242 6.91008 31.6942 6.95258C31.6567 7.00591 31.6025 7.05925 31.5525 7.11341C31.5108 7.15675 31.4775 7.20091 31.4292 7.24508C31.3692 7.29925 31.2942 7.35341 31.2233 7.40758C31.1633 7.45341 31.1117 7.49841 31.045 7.54341C30.965 7.59758 30.87 7.65175 30.7783 7.70591C30.7017 7.75175 30.6308 7.79841 30.545 7.84425C30.4475 7.89675 30.3342 7.95008 30.2258 8.00175C30.1292 8.04925 30.04 8.09591 29.935 8.14258C29.8192 8.19425 29.6883 8.24425 29.5625 8.29591C29.4492 8.34175 29.3408 8.38925 29.2183 8.43508C29.0842 8.48508 28.9358 8.53425 28.7925 8.58258C28.6608 8.62758 28.5367 8.67425 28.3983 8.71841C28.2483 8.76508 28.0842 8.81091 27.9258 8.85758C27.7767 8.90008 27.635 8.94508 27.4792 8.98675C27.3142 9.03175 27.1358 9.07258 26.9633 9.11508C26.7975 9.15675 26.6375 9.20008 26.4633 9.23925C26.2842 9.27925 26.09 9.31758 25.9033 9.35591C25.7217 9.39425 25.5467 9.43341 25.3583 9.46925C25.1567 9.50758 24.9425 9.54175 24.7333 9.57758C24.5433 9.61008 24.36 9.64508 24.165 9.67508C23.9433 9.70925 23.7092 9.73841 23.48 9.77008C23.2817 9.79675 23.09 9.82758 22.8867 9.85175C22.6483 9.88091 22.3967 9.90425 22.15 9.93091C21.9425 9.95258 21.7417 9.97675 21.5283 9.99675C21.2583 10.0209 20.975 10.0384 20.6967 10.0592C20.4958 10.0734 20.3008 10.0917 20.095 10.1042C19.7783 10.1234 19.4492 10.1351 19.1217 10.1476C18.9425 10.1551 18.77 10.1667 18.5883 10.1717C18.0742 10.1867 17.5483 10.1951 17.0133 10.1951C16.4767 10.1951 15.9517 10.1867 15.4383 10.1717C15.2625 10.1667 15.095 10.1551 14.9217 10.1484C14.5892 10.1359 14.2533 10.1234 13.9317 10.1042C13.735 10.0926 13.5508 10.0751 13.3592 10.0617C13.07 10.0401 12.7775 10.0217 12.4975 9.99675C12.2967 9.97758 12.1067 9.95508 11.9108 9.93425C11.6525 9.90675 11.3892 9.88258 11.1392 9.85175C10.9483 9.82925 10.7692 9.80008 10.5825 9.77508C10.34 9.74175 10.0933 9.71091 9.86083 9.67508C9.6775 9.64675 9.50667 9.61425 9.32917 9.58425C9.10833 9.54591 8.88083 9.51008 8.6675 9.46925C8.48917 9.43508 8.32417 9.39758 8.1525 9.36258C7.955 9.32092 7.75167 9.28175 7.5625 9.23925C7.39833 9.20175 7.24667 9.16091 7.08917 9.12175C6.90667 9.07675 6.71917 9.03258 6.54667 8.98675C6.39917 8.94675 6.26417 8.90341 6.1225 8.86258C5.95583 8.81425 5.78417 8.76675 5.62833 8.71758C5.495 8.67508 5.375 8.63091 5.24917 8.58758C5.10083 8.53675 4.94667 8.48591 4.80833 8.43508C4.69083 8.39008 4.5875 8.34508 4.47667 8.30091C4.3475 8.24758 4.21167 8.19591 4.0925 8.14175C3.99083 8.09675 3.90333 8.05091 3.80917 8.00508C3.69833 7.95175 3.5825 7.89758 3.48333 7.84425C3.39833 7.79841 3.32917 7.75258 3.2525 7.70758C3.16083 7.65258 3.06417 7.59841 2.98333 7.54341C2.9175 7.49841 2.865 7.45341 2.80667 7.40841C2.73583 7.35425 2.65917 7.29925 2.6 7.24508C2.55083 7.20091 2.51667 7.15675 2.47667 7.11341C2.42667 7.05925 2.3725 7.00591 2.335 6.95258C2.30417 6.91008 2.28833 6.86758 2.26667 6.82508C2.23833 6.77258 2.205 6.71925 2.19083 6.66841L2.16833 6.49591C2.2825 5.01008 8.37167 2.33341 17.0133 2.33341ZM35.57 20.7984C35.3933 19.8442 34.2942 18.8334 32.0542 17.5526L33.4792 6.97258V6.97008V6.96925L33.5208 6.64591C33.5258 6.61008 33.5283 6.57341 33.5283 6.53758C33.5283 3.07841 24.825 0.666748 17.0133 0.666748C9.20333 0.666748 0.5 3.07841 0.5 6.53758C0.5 6.57341 0.5025 6.61008 0.5075 6.64591L0.55 6.96925V6.97008V6.97258L4.06 33.0401C4.17 36.0934 12.04 37.2334 17.0133 37.2334C19.7625 37.2334 22.52 36.9467 24.7783 36.4242C25.6875 36.2151 26.5033 35.9684 27.2042 35.6917C29.0033 34.9801 29.9325 34.0884 29.9692 33.0401L31.4125 22.3159C32.2008 22.4826 32.9183 22.5842 33.515 22.5842C34.3192 22.5842 34.9217 22.4142 35.2475 22.0251C35.5375 21.6792 35.6525 21.2434 35.57 20.7984ZM8.545 21.0251L10.7083 17.4192L12.8717 21.0251H8.545ZM15.0692 22.2684C15.2175 22.0076 15.2133 21.6867 15.0583 21.4292L11.4225 15.3709C11.1217 14.8692 10.2942 14.8692 9.99333 15.3709L6.35833 21.4292C6.20333 21.6876 6.19917 22.0076 6.3475 22.2692C6.49583 22.5309 6.7725 22.6917 7.0725 22.6917H14.3442C14.6442 22.6917 14.9208 22.5309 15.0692 22.2684ZM22.705 23.4184C24.0492 23.4184 25.1433 24.5209 25.1433 25.8767C25.1433 27.2317 24.0492 28.3351 22.705 28.3351C21.3608 28.3351 20.2667 27.2317 20.2667 25.8767C20.2667 24.5209 21.3608 23.4184 22.705 23.4184ZM22.705 30.0017C24.9683 30.0017 26.81 28.1517 26.81 25.8767C26.81 23.6026 24.9683 21.7517 22.705 21.7517C20.4417 21.7517 18.6 23.6026 18.6 25.8767C18.6 28.1517 20.4417 30.0017 22.705 30.0017ZM10.1658 31.2042H14.2467V27.0551H10.1658V31.2042ZM15.08 25.3876H9.33167C8.87083 25.3876 8.49833 25.7609 8.49833 26.2209V32.0376C8.49833 32.4984 8.87083 32.8709 9.33167 32.8709H15.08C15.54 32.8709 15.9133 32.4984 15.9133 32.0376V26.2209C15.9133 25.7609 15.54 25.3876 15.08 25.3876Z" fill="#6CAE3E"/>
</svg>
