<svg width="38" height="38" viewBox="0 0 38 38" fill="none" xmlns="http://www.w3.org/2000/svg">
<path fill-rule="evenodd" clip-rule="evenodd" d="M10.1295 8.88508H37.2737V0.666748H10.1295V8.88508ZM11.7962 7.21841H35.6062V2.33425H11.7962V7.21841ZM0.666992 8.88508H8.88449V0.666748H0.666992V8.88508ZM2.33366 7.21841H7.21866V2.33425H2.33366V7.21841ZM10.1295 18.3476H37.2737V10.1301H10.1295V18.3476ZM11.7962 16.6809H35.6062V11.7967H11.7962V16.6809ZM0.666992 18.3476H8.88449V10.1301H0.666992V18.3476ZM2.33366 16.6809H7.21866V11.7967H2.33366V16.6809ZM10.1295 27.8101H37.2737V19.5926H10.1295V27.8101ZM11.7962 26.1434H35.6062V21.2584H11.7962V26.1434ZM0.666992 27.8101H8.88449V19.5926H0.666992V27.8101ZM2.33366 26.1434H7.21866V21.2584H2.33366V26.1434ZM10.1295 37.2726H37.2737V29.0551H10.1295V37.2726ZM11.7962 35.6067H35.6062V30.7217H11.7962V35.6067ZM0.666992 37.2726H8.88449V29.0551H0.666992V37.2726ZM2.33366 35.6067H7.21866V30.7217H2.33366V35.6067Z" fill="#527FFF"/>
</svg>
