<svg width="38" height="38" viewBox="0 0 38 38" fill="none" xmlns="http://www.w3.org/2000/svg">
<path fill-rule="evenodd" clip-rule="evenodd" d="M6.49984 31.5001H31.4998V6.50008H6.49984V31.5001ZM37.3332 9.83341V8.16675H33.1665V5.66675C33.1665 5.20675 32.7932 4.83341 32.3332 4.83341H29.8332V0.666748H28.1665V4.83341H24.8332V0.666748H23.1665V4.83341H19.8332V0.666748H18.1665V4.83341H14.8332V0.666748H13.1665V4.83341H9.83317V0.666748H8.1665V4.83341H5.6665C5.20567 4.83341 4.83317 5.20675 4.83317 5.66675V8.16675H0.666504V9.83341H4.83317V13.1667H0.666504V14.8334H4.83317V18.1667H0.666504V19.8334H4.83317V23.1667H0.666504V24.8334H4.83317V28.1667H0.666504V29.8334H4.83317V32.3334C4.83317 32.7942 5.20567 33.1667 5.6665 33.1667H8.1665V37.3334H9.83317V33.1667H13.1665V37.3334H14.8332V33.1667H18.1665V37.3334H19.8332V33.1667H23.1665V37.3334H24.8332V33.1667H28.1665V37.3334H29.8332V33.1667H32.3332C32.7932 33.1667 33.1665 32.7942 33.1665 32.3334V29.8334H37.3332V28.1667H33.1665V24.8334H37.3332V23.1667H33.1665V19.8334H37.3332V18.1667H33.1665V14.8334H37.3332V13.1667H33.1665V9.83341H37.3332Z" fill="#FF9900"/>
</svg>
