<svg width="38" height="38" viewBox="0 0 38 38" fill="none" xmlns="http://www.w3.org/2000/svg">
<path fill-rule="evenodd" clip-rule="evenodd" d="M27.8109 29.0541H0.666771V37.2725H27.8109V29.0541ZM26.1443 30.7208H2.33427V35.605H26.1443V30.7208ZM37.2734 29.0541H29.0559V37.2725H37.2734V29.0541ZM35.6068 30.7208H30.7218V35.605H35.6068V30.7208ZM27.8109 10.1291H0.666771V18.3466H27.8109V10.1291ZM26.1443 11.7958H2.33427V16.6808H26.1443V11.7958ZM37.2734 10.1291H29.0559V18.3466H37.2734V10.1291ZM35.6068 11.7958H30.7218V16.6808H35.6068V11.7958ZM27.8109 0.66663H0.666771V8.88413H27.8109V0.66663ZM26.1443 2.33246H2.33427V7.21746H26.1443V2.33246ZM37.2734 0.66663H29.0559V8.88413H37.2734V0.66663ZM35.6068 2.33246H30.7218V7.21746H35.6068V2.33246Z" fill="#527FFF"/>
</svg>
