<svg width="31" height="30" viewBox="0 0 31 30" fill="none" xmlns="http://www.w3.org/2000/svg">
<path d="M27.7569 12.5519H26.75V12.5H15.5V17.5H22.5644C21.5338 20.4106 18.7644 22.5 15.5 22.5C11.3581 22.5 8 19.1419 8 15C8 10.8581 11.3581 7.5 15.5 7.5C17.4119 7.5 19.1513 8.22125 20.4756 9.39937L24.0112 5.86375C21.7787 3.78312 18.7925 2.5 15.5 2.5C8.59688 2.5 3 8.09688 3 15C3 21.9031 8.59688 27.5 15.5 27.5C22.4031 27.5 28 21.9031 28 15C28 14.1619 27.9137 13.3438 27.7569 12.5519Z" fill="#FFC107"/>
<path d="M4.44092 9.18187L8.54779 12.1937C9.65904 9.4425 12.3503 7.5 15.4997 7.5C17.4115 7.5 19.1509 8.22125 20.4753 9.39937L24.0109 5.86375C21.7784 3.78312 18.7922 2.5 15.4997 2.5C10.6984 2.5 6.53467 5.21062 4.44092 9.18187Z" fill="#FF3D00"/>
<path d="M15.5002 27.4995C18.7289 27.4995 21.6627 26.2638 23.8808 24.2545L20.0121 20.9807C18.7149 21.9672 17.1299 22.5007 15.5002 22.4995C12.2489 22.4995 9.48832 20.4263 8.44832 17.5332L4.37207 20.6738C6.44082 24.722 10.6421 27.4995 15.5002 27.4995Z" fill="#4CAF50"/>
<path d="M27.7569 12.5519H26.75V12.5H15.5V17.5H22.5644C22.0714 18.8853 21.1833 20.0957 20.01 20.9819L20.0119 20.9806L23.8806 24.2544C23.6069 24.5031 28 21.25 28 15C28 14.1619 27.9137 13.3437 27.7569 12.5519Z" fill="#1976D2"/>
</svg>
