<svg width="16" height="16" viewBox="0 0 16 16" fill="none" xmlns="http://www.w3.org/2000/svg">
<path fill-rule="evenodd" clip-rule="evenodd" d="M8 0C3.582 0 0 3.582 0 8C0 12.418 3.582 16 8 16C12.418 16 16 12.418 16 8C16 3.582 12.418 0 8 0ZM9.14286 4.57143C9.14286 5.20261 8.63118 5.71429 8 5.71429C7.36882 5.71429 6.85714 5.20261 6.85714 4.57143C6.85714 3.94025 7.36882 3.42857 8 3.42857C8.63118 3.42857 9.14286 3.94025 9.14286 4.57143ZM5.71429 6.85714H9.14286V11.4286H10.2857V12.5714H5.71429V11.4286H6.85714V8H5.71429V6.85714Z" fill="#5A6872"/>
</svg>
