<svg width="38" height="38" viewBox="0 0 38 38" fill="none" xmlns="http://www.w3.org/2000/svg">
<path fill-rule="evenodd" clip-rule="evenodd" d="M2.33366 18.9842C2.33366 9.80258 9.80199 2.33341 18.9837 2.33341C28.1653 2.33341 35.6337 9.80258 35.6337 18.9842C35.6337 28.1651 28.1653 35.6342 18.9837 35.6342C9.80199 35.6342 2.33366 28.1651 2.33366 18.9842ZM0.666992 18.9842C0.666992 29.0842 8.88366 37.3009 18.9837 37.3009C29.0837 37.3009 37.3003 29.0842 37.3003 18.9842C37.3003 8.88341 29.0837 0.666748 18.9837 0.666748C8.88366 0.666748 0.666992 8.88341 0.666992 18.9842ZM13.3487 28.3492H8.89199L14.1728 17.2859L16.4045 21.8917L13.3487 28.3492ZM14.9162 15.0001C14.777 14.7134 14.4862 14.5309 14.167 14.5309H14.1645C13.8437 14.5317 13.552 14.7159 13.4145 15.0051L6.81866 28.8234C6.69533 29.0817 6.71283 29.3851 6.86616 29.6267C7.01866 29.8692 7.28449 30.0159 7.57116 30.0159H13.8762C14.1987 30.0159 14.4912 29.8301 14.6295 29.5392L18.082 22.2442C18.1895 22.0159 18.1887 21.7509 18.0778 21.5234L14.9162 15.0001ZM29.0778 28.3492H24.5403L16.2887 10.6184C16.152 10.3251 15.857 10.1367 15.5328 10.1367H12.5337L12.537 6.70425H18.5462L26.7587 24.4334C26.8953 24.7276 27.1903 24.9167 27.5145 24.9167H29.0778V28.3492ZM28.047 23.2501L19.8345 5.52091C19.697 5.22675 19.4028 5.03758 19.0778 5.03758H11.7045C11.2445 5.03758 10.872 5.41008 10.8712 5.87008L10.8662 10.9692C10.8662 11.1909 10.9537 11.4026 11.1103 11.5592C11.2662 11.7159 11.4778 11.8034 11.6995 11.8034H15.002L23.2537 29.5342C23.3903 29.8276 23.6853 30.0159 24.0087 30.0159H29.9112C30.372 30.0159 30.7445 29.6434 30.7445 29.1826V24.0834C30.7445 23.6226 30.372 23.2501 29.9112 23.2501H28.047Z" fill="#6CAE3E"/>
</svg>
