<svg width="30" height="38" viewBox="0 0 30 38" fill="none" xmlns="http://www.w3.org/2000/svg">
<path fill-rule="evenodd" clip-rule="evenodd" d="M11.9083 14.0334L13.0867 15.2117L7.255 21.0434C7.0925 21.2059 6.87917 21.2876 6.66583 21.2876C6.4525 21.2876 6.23917 21.2059 6.07667 21.0434L3.16 18.1276L4.33833 16.9492L6.66583 19.2759L11.9083 14.0334ZM11.9083 4.55591L13.0867 5.73425L7.255 11.5659C7.0925 11.7284 6.87917 11.8101 6.66583 11.8101C6.4525 11.8101 6.23917 11.7284 6.07667 11.5659L3.16 8.65008L4.33833 7.47175L6.66583 9.79842L11.9083 4.55591ZM11.6292 26.1467L8.93833 28.8384L11.6292 31.5292L10.4508 32.7076L7.75917 30.0168L5.0675 32.7076L3.88917 31.5292L6.58083 28.8384L3.88917 26.1467L5.0675 24.9684L7.75917 27.6601L10.4508 24.9684L11.6292 26.1467ZM27.7025 34.9884C27.7025 35.3584 27.4017 35.6593 27.0317 35.6593H2.33833C1.9675 35.6593 1.66667 35.3584 1.66667 34.9884V3.00508C1.66667 2.63425 1.9675 2.33341 2.33833 2.33341H27.0317C27.4017 2.33341 27.7025 2.63425 27.7025 3.00508V34.9884ZM27.0317 0.666748H2.33833C1.04917 0.666748 0 1.71591 0 3.00508V34.9884C0 36.2767 1.04917 37.3259 2.33833 37.3259H27.0317C28.3208 37.3259 29.3692 36.2767 29.3692 34.9884V3.00508C29.3692 1.71591 28.3208 0.666748 27.0317 0.666748Z" fill="#FF5252"/>
</svg>
