<svg width="38" height="38" viewBox="0 0 38 38" fill="none" xmlns="http://www.w3.org/2000/svg">
<path fill-rule="evenodd" clip-rule="evenodd" d="M16.6995 20.1523C16.492 20.1523 16.2412 20.1223 15.9478 20.0632C15.6553 20.0023 15.392 19.9282 15.1587 19.8407V20.8323C15.3603 20.9465 15.6087 21.0373 15.9053 21.1073C16.2012 21.1765 16.4978 21.2115 16.7937 21.2115C17.4753 21.2115 18.0087 21.0365 18.3962 20.6865C18.7845 20.3373 18.9778 19.8623 18.9778 19.264C18.9778 18.9548 18.932 18.6915 18.8412 18.474C18.7495 18.2573 18.6078 18.0598 18.4162 17.8832C18.2228 17.7065 17.9637 17.5307 17.6353 17.354L17.1253 17.079C16.8478 16.929 16.6603 16.7898 16.562 16.6632C16.4653 16.5373 16.4153 16.3765 16.4153 16.1807C16.4153 15.9482 16.492 15.7648 16.6437 15.6332C16.7937 15.5007 17.002 15.434 17.267 15.434C17.657 15.434 18.1078 15.5282 18.6195 15.7182V14.7165C18.1278 14.489 17.632 14.3748 17.1345 14.3748C16.7378 14.3748 16.3862 14.4523 16.0803 14.6073C15.7745 14.7615 15.5337 14.9823 15.357 15.269C15.1812 15.5557 15.092 15.8915 15.092 16.2757C15.092 16.6923 15.192 17.0448 15.3945 17.3348C15.5962 17.6248 15.9303 17.8957 16.3978 18.1482L16.907 18.4223C17.1662 18.5607 17.3503 18.6982 17.4603 18.8332C17.5703 18.969 17.6253 19.134 17.6253 19.3298C17.6253 19.5948 17.5478 19.7973 17.3895 19.939C17.232 20.0815 17.002 20.1523 16.6995 20.1523ZM12.9745 17.694C12.9745 16.9507 12.8753 16.404 12.6762 16.0532C12.4787 15.704 12.1678 15.5282 11.7453 15.5282H11.1962V20.0582H11.7537C12.1645 20.0582 12.4695 19.8798 12.672 19.524C12.8728 19.1665 12.9745 18.6198 12.9745 17.8832V17.694ZM13.702 15.349C14.1245 15.904 14.3353 16.7165 14.3353 17.7882C14.3353 18.8665 14.1278 19.6832 13.712 20.2382C13.2953 20.7923 12.6903 21.0698 11.8962 21.0698H9.87366V14.5173H11.8495C12.662 14.5173 13.2795 14.7948 13.702 15.349ZM7.50033 16.5782C7.50033 16.2257 7.43533 15.9582 7.30699 15.7748C7.17699 15.5915 6.98949 15.5007 6.74366 15.5007H6.12866V17.6565H6.74366C6.98949 17.6565 7.17699 17.5657 7.30699 17.3823C7.43533 17.199 7.50033 16.9315 7.50033 16.5782ZM7.82199 18.4415L9.14533 21.0698H7.78449L6.64033 18.6398H6.12866V21.0698H4.83449V14.5173H6.90449C7.48449 14.5173 7.94616 14.7015 8.28949 15.0707C8.63283 15.439 8.80449 15.9415 8.80449 16.5782C8.80449 17.019 8.71949 17.4007 8.55033 17.7223C8.37949 18.044 8.13699 18.284 7.82199 18.4415ZM33.6612 11.6148V8.069C33.6612 7.609 33.5645 7.259 33.3728 7.019C33.1795 6.77984 32.9003 6.66067 32.5362 6.66067C32.0753 6.66067 31.5937 6.8465 31.0895 7.21817L30.9853 6.78317H29.9262V11.6148H31.2212V7.87067C31.4545 7.719 31.6687 7.64317 31.8637 7.64317C32.047 7.64317 32.1762 7.7065 32.252 7.83234C32.3278 7.959 32.3653 8.16067 32.3653 8.43734V11.6148H33.6612ZM27.7237 9.204C27.7237 8.66817 27.6712 8.274 27.567 8.0215C27.4637 7.76984 27.2945 7.64317 27.062 7.64317C26.8287 7.64317 26.6595 7.76984 26.5553 8.0215C26.452 8.274 26.3995 8.66817 26.3995 9.204C26.3995 9.73984 26.452 10.1323 26.5553 10.3807C26.6595 10.6298 26.8287 10.7548 27.062 10.7548C27.2945 10.7548 27.4637 10.6298 27.567 10.3807C27.6712 10.1323 27.7237 9.73984 27.7237 9.204ZM28.5087 7.32234C28.8487 7.76317 29.0187 8.39067 29.0187 9.204C29.0187 10.0107 28.8487 10.634 28.5087 11.0748C28.1687 11.5173 27.6862 11.7373 27.062 11.7373C26.4387 11.7373 25.9553 11.5173 25.6145 11.0748C25.2745 10.634 25.1045 10.0107 25.1045 9.204C25.1045 8.39067 25.2745 7.76317 25.6145 7.32234C25.9553 6.88067 26.4387 6.66067 27.062 6.66067C27.6862 6.66067 28.1687 6.88067 28.5087 7.32234ZM21.162 11.6148H24.5187V10.6215H22.5237L24.4803 7.70067V6.78317H21.237V7.77567H23.1187L21.162 10.6973V11.6148ZM19.1945 10.5273V9.60067C19.0562 9.55651 18.8928 9.53484 18.7028 9.53484C18.5212 9.53484 18.3803 9.59317 18.2828 9.70984C18.1845 9.82567 18.1362 9.99567 18.1362 10.2148C18.1362 10.4048 18.1753 10.554 18.2545 10.664C18.3337 10.7748 18.4387 10.829 18.5712 10.829C18.7795 10.829 18.987 10.7282 19.1945 10.5273ZM18.8078 11.5823C18.6053 11.6857 18.4012 11.7373 18.1928 11.7373C17.802 11.7373 17.4928 11.6107 17.267 11.354C17.0395 11.0998 16.9253 10.7482 16.9253 10.3007C16.9253 9.82734 17.0645 9.45401 17.342 9.17984C17.6195 8.90567 17.9945 8.769 18.467 8.769C18.662 8.769 18.9045 8.80734 19.1945 8.88234V8.44734C19.1945 8.11984 19.152 7.89734 19.0678 7.78067C18.982 7.66484 18.8237 7.60567 18.5903 7.60567C18.2112 7.60567 17.7487 7.7065 17.2012 7.90817V7.04734C17.3828 6.92817 17.622 6.834 17.9187 6.76484C18.2145 6.69567 18.5178 6.66067 18.8262 6.66067C19.3745 6.66067 19.772 6.78484 20.0178 7.034C20.2637 7.28317 20.387 7.6815 20.387 8.22984V11.6148H19.3845L19.2712 11.1798C19.1637 11.344 19.0087 11.4773 18.8078 11.5823ZM16.0087 11.6148V8.069C16.0087 7.61484 15.9145 7.26734 15.7253 7.024C15.5362 6.7815 15.2645 6.66067 14.912 6.66067C14.4712 6.66067 13.992 6.85234 13.4753 7.23734C13.292 6.85234 12.977 6.66067 12.5303 6.66067C12.0887 6.66067 11.6153 6.8465 11.112 7.21817L11.007 6.78317H9.94783V11.6148H11.2437V7.87067C11.4762 7.719 11.682 7.64317 11.8578 7.64317C12.0287 7.64317 12.1503 7.7065 12.2228 7.83234C12.2953 7.959 12.3312 8.15734 12.3312 8.429V11.6148H13.6262V8.08734V7.97484C13.6262 7.9365 13.6237 7.90234 13.617 7.87067C13.8503 7.719 14.0587 7.64317 14.2412 7.64317C14.4112 7.64317 14.532 7.7065 14.6053 7.83234C14.677 7.959 14.7137 8.15734 14.7137 8.429V11.6148H16.0087ZM7.34033 9.10984L6.74366 6.39567L6.16699 9.10984H7.34033ZM9.33449 11.6148H7.87866L7.53783 10.0548H5.96866L5.63783 11.6148H4.24783L6.06283 5.06317H7.52866L9.33449 11.6148ZM35.6687 24.0048V21.059C34.2262 21.8448 32.0403 22.2523 29.8637 22.2523C27.687 22.2523 25.5012 21.8448 24.0595 21.059V24.0048C24.0595 24.529 26.0337 25.7582 29.8637 25.7582C33.6937 25.7582 35.6687 24.529 35.6687 24.0048ZM35.6687 29.0865V26.2315C34.2262 27.0173 32.0403 27.4248 29.8637 27.4248C27.687 27.4248 25.5012 27.0173 24.0595 26.2315V29.0865C24.0595 29.6107 26.0337 30.839 29.8637 30.839C33.6937 30.839 35.6687 29.6107 35.6687 29.0865ZM35.6687 33.6232V31.3132C34.2262 32.099 32.0403 32.5057 29.8637 32.5057C27.687 32.5057 25.5012 32.099 24.0595 31.3132V33.6232C24.0595 34.1473 26.0337 35.3765 29.8637 35.3765C33.6937 35.3765 35.6687 34.1473 35.6687 33.6232ZM24.0595 18.8323C24.0595 19.3565 26.0337 20.5857 29.8637 20.5857C33.6937 20.5857 35.6687 19.3565 35.6687 18.8323C35.6687 18.3082 33.6937 17.079 29.8637 17.079C26.0337 17.079 24.0595 18.3082 24.0595 18.8323ZM37.3353 18.8323V33.6232C37.3353 35.8682 33.5762 37.0432 29.8637 37.0432C26.1512 37.0432 22.3928 35.8682 22.3928 33.6232V18.8323C22.3928 16.5873 26.1512 15.4132 29.8637 15.4132C33.5762 15.4132 37.3353 16.5873 37.3353 18.8323ZM5.46199 35.5765H21.8637V37.2432H5.46199C2.81783 37.2432 0.666992 35.0923 0.666992 32.4482V5.46234C0.666992 2.81817 2.81783 0.666504 5.46199 0.666504H32.447C35.0912 0.666504 37.2428 2.81817 37.2428 5.46234V16.0457H35.5762V5.46234C35.5762 3.73734 34.1728 2.33317 32.447 2.33317H5.46199C3.73616 2.33317 2.33366 3.73734 2.33366 5.46234V32.4482C2.33366 34.1732 3.73616 35.5765 5.46199 35.5765Z" fill="#527FFF"/>
</svg>
