<svg width="40" height="40" viewBox="0 0 40 40" fill="none" xmlns="http://www.w3.org/2000/svg">
<path d="M38.0002 38.7522H2.0002C1.78803 38.7522 1.58454 38.6679 1.43451 38.5178C1.28448 38.3678 1.2002 38.1643 1.2002 37.9522V35.5522C1.19779 31.4748 2.56577 27.515 5.08443 24.3087C7.6031 21.1023 11.1263 18.8354 15.0882 17.8722C15.2824 17.8232 15.488 17.8489 15.6642 17.9442C16.9916 18.6689 18.4798 19.0487 19.9922 19.0487C21.5046 19.0487 22.9928 18.6689 24.3202 17.9442C24.4942 17.8509 24.6965 17.8253 24.8882 17.8722C28.8559 18.8311 32.3855 21.0972 34.909 24.3056C37.4325 27.5141 38.8031 31.4782 38.8002 35.5602V37.9602C38.7981 38.1709 38.7129 38.3724 38.5631 38.5207C38.4133 38.669 38.211 38.7522 38.0002 38.7522ZM2.8002 37.1522H37.2002V35.5522C37.2013 31.8829 35.9842 28.317 33.74 25.4141C31.4959 22.5111 28.3515 20.4352 24.8002 19.5122C23.3101 20.2593 21.6671 20.6509 20.0002 20.6562C18.3323 20.6589 16.6875 20.2669 15.2002 19.5122C11.6476 20.4356 8.50223 22.5126 6.2579 25.4172C4.01357 28.3218 2.79735 31.8895 2.8002 35.5602V37.1522Z" fill="#5A6872"/>
<path d="M20.0003 20.6001C18.3508 20.606 16.7267 20.1931 15.2803 19.4001C13.7897 18.5647 12.5461 17.3506 11.6752 15.8804C10.8043 14.4103 10.3371 12.7362 10.3208 11.0276C10.3044 9.31891 10.7395 7.63623 11.5821 6.14968C12.4247 4.66313 13.6448 3.42542 15.1192 2.5617C16.5936 1.69798 18.2698 1.23888 19.9786 1.23082C21.6873 1.22276 23.3678 1.66604 24.8503 2.51582C26.3327 3.36559 27.5645 4.59175 28.421 6.07029C29.2776 7.54883 29.7286 9.22733 29.7283 10.9361C29.7297 12.6722 29.2602 14.3762 28.3699 15.8667C27.4795 17.3572 26.2017 18.5783 24.6723 19.4001C23.2377 20.179 21.6327 20.5912 20.0003 20.6001ZM20.0003 2.84806C18.1934 2.81281 16.4271 3.38553 14.9847 4.47432C13.5423 5.56312 12.5074 7.10487 12.0462 8.85221C11.5849 10.5996 11.7239 12.4512 12.441 14.1101C13.158 15.7689 14.4115 17.1389 16.0003 18.0001C17.209 18.6589 18.5637 19.0042 19.9403 19.0042C21.3169 19.0042 22.6716 18.6589 23.8803 18.0001C25.1572 17.3165 26.2245 16.299 26.9684 15.0564C27.7123 13.8137 28.1049 12.3924 28.1043 10.9441C28.0959 8.79808 27.2391 6.74252 25.7209 5.22582C24.2027 3.70912 22.1463 2.85438 20.0003 2.84806Z" fill="#5A6872"/>
</svg>
