<svg width="120" height="120" viewBox="0 0 120 120" fill="none" xmlns="http://www.w3.org/2000/svg">
<circle opacity="0.1" cx="60" cy="60" r="60" fill="#00B4A0"/>
<path d="M63.2731 84.92H77.6731V95.9996L95.6731 79.3802L77.6731 62.7607V73.8404H63.2731V84.92Z" fill="#00B4A0"/>
<path d="M88.8 24H31.2C29.2904 24 27.4591 24.7782 26.1088 26.1634C24.7586 27.5487 24 29.4274 24 31.3864V75.7049C24 77.6639 24.7586 79.5427 26.1088 80.9279C27.4591 82.3131 29.2904 83.0913 31.2 83.0913H56.4V75.7049H31.2V38.7728L60 57.2389L88.8 38.7728V64.6253H96V31.3864C96 29.4274 95.2414 27.5487 93.8912 26.1634C92.5409 24.7782 90.7096 24 88.8 24ZM60 49.8525L31.2 31.3864H88.8L60 49.8525Z" fill="#3D70B2"/>
</svg>
