<svg width="120" height="120" viewBox="0 0 120 120" fill="none" xmlns="http://www.w3.org/2000/svg">
<circle opacity="0.1" cx="60" cy="60" r="60" fill="#00B4A0"/>
<path d="M83.6 64.4V59.6C83.6 58.327 83.0943 57.1061 82.1941 56.2059C81.2939 55.3057 80.073 54.8 78.8 54.8H30.8C29.527 54.8 28.3061 55.3057 27.4059 56.2059C26.5057 57.1061 26 58.327 26 59.6V88.4C26 89.673 26.5057 90.8939 27.4059 91.7941C28.3061 92.6943 29.527 93.2 30.8 93.2H78.8C80.073 93.2 81.2939 92.6943 82.1941 91.7941C83.0943 90.8939 83.6 89.673 83.6 88.4V83.6M83.6 64.4V83.6M83.6 64.4H64.4C61.8539 64.4 59.4121 65.4114 57.6118 67.2118C55.8114 69.0121 54.8 71.4539 54.8 74C54.8 76.5461 55.8114 78.9879 57.6118 80.7882C59.4121 82.5886 61.8539 83.6 64.4 83.6H83.6M83.6 64.4C86.1461 64.4 88.5879 65.4114 90.3882 67.2118C92.1886 69.0121 93.2 71.4539 93.2 74C93.2 76.5461 92.1886 78.9879 90.3882 80.7882C88.5879 82.5886 86.1461 83.6 83.6 83.6M81.2 74H86M71.6 74H76.4M62 74H66.8M40.4 54.8V40.4C40.4 36.5809 41.9171 32.9182 44.6177 30.2177C47.3182 27.5171 50.9809 26 54.8 26C58.6191 26 62.2818 27.5171 64.9823 30.2177C67.6829 32.9182 69.2 36.5809 69.2 40.4V54.8H40.4Z" stroke="#3D70B2" stroke-width="4.8"/>
<path d="M71.6 73.9999H76.4M62 73.9999H66.8M83.6 64.3999H64.4C61.8539 64.3999 59.4121 65.4113 57.6118 67.2117C55.8114 69.012 54.8 71.4538 54.8 73.9999C54.8 76.546 55.8114 78.9878 57.6118 80.7881C59.4121 82.5885 61.8539 83.5999 64.4 83.5999H83.6C86.1461 83.5999 88.5879 82.5885 90.3882 80.7881C92.1886 78.9878 93.2 76.546 93.2 73.9999C93.2 71.4538 92.1886 69.012 90.3882 67.2117C88.5879 65.4113 86.1461 64.3999 83.6 64.3999Z" stroke="#00B4A0" stroke-width="4.8"/>
</svg>
