<svg width="120" height="120" viewBox="0 0 120 120" fill="none" xmlns="http://www.w3.org/2000/svg">
<circle opacity="0.1" cx="60" cy="60" r="60" fill="#00B4A0"/>
<path fill-rule="evenodd" clip-rule="evenodd" d="M48.0001 31.1568C43.6104 32.3369 39.2492 33.6204 34.9201 35.0064C34.5283 35.1273 34.1786 35.3563 33.9111 35.6671C33.6437 35.9779 33.4693 36.3578 33.4081 36.7632C30.8497 55.4688 36.7537 69.12 43.7953 78.1104C47.3281 82.6224 51.1537 85.9632 54.3409 88.1568C55.9393 89.2512 57.3457 90.048 58.4545 90.5568C59.0113 90.8112 59.4625 90.984 59.8081 91.0848C59.9604 91.1338 60.116 91.1723 60.2737 91.2C60.3073 91.1952 60.4561 91.176 60.7393 91.0896C61.0849 90.984 61.5361 90.8112 62.0929 90.5568C63.1969 90.048 64.6129 89.2512 66.2065 88.1568C70.203 85.3527 73.7576 81.9664 76.7521 78.1104C83.7937 69.12 89.6977 55.4688 87.1393 36.7632C87.078 36.3578 86.9037 35.9779 86.6362 35.6671C86.3687 35.3563 86.019 35.1273 85.6273 35.0064C82.6225 34.0464 77.5537 32.4816 72.5473 31.1568C67.4305 29.808 62.7217 28.8 60.2737 28.8C57.8257 28.8 53.1217 29.808 48.0001 31.1568ZM46.7713 26.52C51.7777 25.1952 57.0913 24 60.2737 24C63.4513 24 68.7697 25.1952 73.7761 26.52C78.2415 27.7189 82.6779 29.0233 87.0817 30.432C89.6161 31.2384 91.5265 33.4224 91.8961 36.1152C94.6465 56.2608 88.2673 71.1888 80.5345 81.0672C77.2392 85.3066 73.3269 89.028 68.9281 92.1072C67.3985 93.1786 65.7816 94.1195 64.0945 94.92C62.7985 95.5152 61.4161 96 60.2737 96C59.1313 96 57.7489 95.5152 56.4529 94.92C54.7653 94.1202 53.1484 93.1792 51.6193 92.1072C47.2222 89.0275 43.3115 85.3062 40.0177 81.0672C32.2753 71.1888 25.9009 56.2608 28.6513 36.1152C28.8352 34.8099 29.3849 33.5834 30.2369 32.5777C31.089 31.5719 32.2084 30.828 33.4657 30.432C37.8694 29.0233 42.3058 27.719 46.7713 26.52Z" fill="#3D70B2"/>
<path d="M45 59L56 69L74 51" stroke="#00B4A0" stroke-width="4" stroke-linecap="round"/>
</svg>
